# xmcd CD database file
# Copyright (C) 1993-1998 Ti Kan
#
# Track frame offsets:
# 150
# 24980
# 36142
# 52290
# 64467
# 77747
# 109002
# 124767
# 145445
# 161787
# 181970
#
# Disc length: 2685 seconds
# Revision: 0
# Processed by: cddbd v1.4b41PL1 Copyright (c) Steve Scherf et al.
# Submitted via: CDSpectrumPro v3.3.330
#
DISCID=9e0a7b0b
DTITLE=Various Artist - Salvation is Created
DYEAR=1900
DGENRE=
TTITLE0=Alexander Gretchaninoff - Our Father
TTITLE1=Alexander Gretchaninoff - Nunc Dimittis
TTITLE2=Peter Techeshnokoff - Salvation is Created
TTITLE3=Serge Rakhmaninov - All Night Vigil, opus 37
TTITLE4=Serge Rakhmaninov - All Night Vigil, opus 37
TTITLE5=Rene Clausen - Magnificat
TTITLE6=George Schumann - Yea,  Though I Wander
TTITLE7=Sven-David Sandstrom - Agnus Dei
TTITLE8=Alberto Ginastera - Recordare Domine Quid Acciduit Nobis
TTITLE9=Randall Thompson - Alleluia
TTITLE10=The Exultation of Christ - Charles Forberg
EXTD=The Concordia Choir
EXTT0=
EXTT1=
EXTT2=
EXTT3=
EXTT4=
EXTT5=
EXTT6=
EXTT7=
EXTT8=
EXTT9=
EXTT10=
PLAYORDER=
